# Blender v3.0.0 OBJ File: 'Key.blend'
# www.blender.org
mtllib Key.mtl
o Key
v 0.170423 0.004213 0.038274
v 0.170423 0.009211 0.038274
v 0.170423 0.004213 0.006513
v 0.170423 0.009211 0.006513
v 0.193155 0.004213 0.038274
v 0.193155 0.009211 0.038274
v 0.193155 0.004213 0.006513
v 0.193155 0.009211 0.006513
v -0.320844 -0.000000 0.069988
v -0.307481 -0.000000 0.064678
v -0.295410 -0.000000 0.056864
v -0.285096 -0.000000 0.046845
v -0.276935 -0.000000 0.035006
v -0.271240 -0.000000 0.021802
v -0.268231 -0.000000 0.007742
v -0.268022 -0.000000 -0.006636
v -0.270623 -0.000000 -0.020778
v -0.275932 -0.000000 -0.034141
v -0.283747 -0.000000 -0.046212
v -0.293766 -0.000000 -0.056526
v -0.305605 -0.000000 -0.064687
v -0.318808 -0.000000 -0.070381
v -0.332869 -0.000000 -0.073391
v -0.347247 -0.000000 -0.073599
v -0.361389 -0.000000 -0.070999
v -0.374752 -0.000000 -0.065689
v -0.386822 -0.000000 -0.057875
v -0.397136 -0.000000 -0.047856
v -0.405297 -0.000000 -0.036017
v -0.410992 -0.000000 -0.022814
v -0.414001 -0.000000 -0.008753
v -0.414210 -0.000000 0.005625
v -0.411609 -0.000000 0.019767
v -0.406300 -0.000000 0.033130
v -0.398485 -0.000000 0.045200
v -0.388466 -0.000000 0.055514
v -0.376628 -0.000000 0.063675
v -0.363424 -0.000000 0.069370
v -0.349363 -0.000000 0.072380
v -0.334986 -0.000000 0.072588
v -0.324696 -0.000000 0.056593
v -0.313872 -0.000000 0.052293
v -0.304095 -0.000000 0.045963
v -0.295740 -0.000000 0.037848
v -0.289130 -0.000000 0.028258
v -0.284517 -0.000000 0.017564
v -0.282080 -0.000000 0.006175
v -0.281911 -0.000000 -0.005471
v -0.284017 -0.000000 -0.016926
v -0.288318 -0.000000 -0.027750
v -0.294647 -0.000000 -0.037527
v -0.302763 -0.000000 -0.045881
v -0.312352 -0.000000 -0.052492
v -0.323047 -0.000000 -0.057104
v -0.334436 -0.000000 -0.059542
v -0.346082 -0.000000 -0.059711
v -0.357537 -0.000000 -0.057605
v -0.368361 -0.000000 -0.053304
v -0.378138 -0.000000 -0.046974
v -0.386492 -0.000000 -0.038859
v -0.393102 -0.000000 -0.029270
v -0.397715 -0.000000 -0.018575
v -0.400153 -0.000000 -0.007186
v -0.400321 -0.000000 0.004460
v -0.398215 -0.000000 0.015915
v -0.393914 -0.000000 0.026739
v -0.387585 -0.000000 0.036516
v -0.379469 -0.000000 0.044870
v -0.369880 -0.000000 0.051481
v -0.359185 -0.000000 0.056093
v -0.347796 -0.000000 0.058531
v -0.336150 -0.000000 0.058700
v -0.320844 0.014125 0.069988
v -0.307481 0.014125 0.064678
v -0.295410 0.014125 0.056864
v -0.285096 0.014125 0.046845
v -0.276935 0.014125 0.035006
v -0.271240 0.014125 0.021802
v -0.268231 0.014125 0.007742
v -0.268022 0.014125 -0.006636
v -0.270623 0.014125 -0.020778
v -0.275932 0.014125 -0.034141
v -0.283747 0.014125 -0.046212
v -0.293766 0.014125 -0.056526
v -0.305605 0.014125 -0.064687
v -0.318808 0.014125 -0.070381
v -0.332869 0.014125 -0.073391
v -0.347247 0.014125 -0.073599
v -0.361389 0.014125 -0.070999
v -0.374752 0.014125 -0.065689
v -0.386822 0.014125 -0.057875
v -0.397136 0.014125 -0.047856
v -0.405297 0.014125 -0.036017
v -0.410992 0.014125 -0.022814
v -0.414001 0.014125 -0.008753
v -0.414210 0.014125 0.005625
v -0.411609 0.014125 0.019767
v -0.406300 0.014125 0.033130
v -0.398485 0.014125 0.045200
v -0.388466 0.014125 0.055514
v -0.376628 0.014125 0.063675
v -0.363424 0.014125 0.069370
v -0.349363 0.014125 0.072380
v -0.334986 0.014125 0.072588
v -0.324696 0.014125 0.056593
v -0.313872 0.014125 0.052293
v -0.304095 0.014125 0.045963
v -0.295740 0.014125 0.037848
v -0.289130 0.014125 0.028258
v -0.284517 0.014125 0.017564
v -0.282080 0.014125 0.006175
v -0.281911 0.014125 -0.005471
v -0.284017 0.014125 -0.016926
v -0.288318 0.014125 -0.027750
v -0.294647 0.014125 -0.037527
v -0.302763 0.014125 -0.045881
v -0.312352 0.014125 -0.052492
v -0.323047 0.014125 -0.057104
v -0.334436 0.014125 -0.059542
v -0.346082 0.014125 -0.059711
v -0.357537 0.014125 -0.057605
v -0.368361 0.014125 -0.053304
v -0.378138 0.014125 -0.046974
v -0.386492 0.014125 -0.038859
v -0.393102 0.014125 -0.029270
v -0.397715 0.014125 -0.018575
v -0.400153 0.014125 -0.007186
v -0.400321 0.014125 0.004460
v -0.398215 0.014125 0.015915
v -0.393914 0.014125 0.026739
v -0.387585 0.014125 0.036516
v -0.379469 0.014125 0.044870
v -0.369880 0.014125 0.051481
v -0.359185 0.014125 0.056093
v -0.347796 0.014125 0.058531
v -0.336150 0.014125 0.058700
v -0.268231 0.014125 0.007742
v -0.282080 0.014125 0.006175
v -0.268022 -0.000000 -0.006636
v -0.268209 0.013027 -0.002698
v 0.268209 0.013027 -0.002698
v -0.268209 0.009211 -0.006513
v 0.268209 0.009211 -0.006513
v -0.268209 0.003815 -0.006513
v 0.268209 0.003815 -0.006513
v -0.268209 0.000000 -0.002698
v 0.268209 -0.000000 -0.002698
v -0.268209 0.000000 0.002698
v 0.268209 -0.000000 0.002698
v -0.268209 0.003815 0.006513
v 0.268209 0.003815 0.006513
v -0.268209 0.009211 0.006513
v 0.268209 0.009211 0.006513
v -0.268209 0.013027 0.002698
v 0.268209 0.013027 0.002698
v 0.215888 0.004213 0.026965
v 0.215888 0.009211 0.026965
v 0.215888 0.004213 0.006513
v 0.215888 0.009211 0.006513
v 0.238621 0.004213 0.026965
v 0.238621 0.009211 0.026965
v 0.238621 0.004213 0.006513
v 0.238621 0.009211 0.006513
v 0.238621 0.004213 0.051947
v 0.238621 0.009211 0.051947
v 0.238621 0.004213 0.006513
v 0.238621 0.009211 0.006513
v 0.261353 0.004213 0.051947
v 0.261353 0.009211 0.051947
v 0.261353 0.004213 0.006513
v 0.261353 0.009211 0.006513
v 0.193155 0.004213 0.076513
v 0.193155 0.009211 0.076513
v 0.193155 0.004213 0.006513
v 0.193155 0.009211 0.006513
v 0.215888 0.004213 0.076513
v 0.215888 0.009211 0.076513
v 0.215888 0.004213 0.006513
v 0.215888 0.009211 0.006513
vt 0.765755 0.926103
vt 0.765755 0.916030
vt 0.829764 0.916030
vt 0.829764 0.926103
vt 0.839836 0.916030
vt 0.829764 0.870217
vt 0.839836 0.870217
vt 0.829764 0.860144
vt 0.765755 0.870217
vt 0.765755 0.860144
vt 0.755683 0.870217
vt 0.755683 0.916030
vt 0.691674 0.916030
vt 0.691674 0.870217
vt 0.501099 0.620047
vt 0.476327 0.606807
vt 0.485310 0.585121
vt 0.512188 0.593274
vt 0.276950 0.436093
vt 0.294769 0.457805
vt 0.278172 0.474403
vt 0.256459 0.456584
vt 0.489889 0.562099
vt 0.517842 0.564852
vt 0.229270 0.593274
vt 0.256148 0.585120
vt 0.265131 0.606806
vt 0.240359 0.620047
vt 0.265131 0.493919
vt 0.240360 0.480679
vt 0.489889 0.538627
vt 0.517842 0.535874
vt 0.278171 0.626323
vt 0.256459 0.644142
vt 0.256148 0.515605
vt 0.229270 0.507452
vt 0.485310 0.515605
vt 0.512188 0.507452
vt 0.294769 0.642920
vt 0.276950 0.664633
vt 0.251569 0.538626
vt 0.223616 0.535873
vt 0.476327 0.493920
vt 0.501099 0.480679
vt 0.314285 0.655961
vt 0.301045 0.680732
vt 0.251569 0.562099
vt 0.223616 0.564852
vt 0.463287 0.474403
vt 0.484999 0.456584
vt 0.335971 0.664944
vt 0.327818 0.691822
vt 0.446689 0.457805
vt 0.464508 0.436093
vt 0.358992 0.669523
vt 0.356239 0.697475
vt 0.427173 0.444765
vt 0.440413 0.419994
vt 0.382465 0.669523
vt 0.385218 0.697476
vt 0.405487 0.435782
vt 0.413641 0.408904
vt 0.405486 0.664944
vt 0.413640 0.691822
vt 0.382466 0.431203
vt 0.385219 0.403250
vt 0.427172 0.655961
vt 0.440413 0.680733
vt 0.358993 0.431203
vt 0.356240 0.403250
vt 0.446689 0.642921
vt 0.464508 0.664633
vt 0.335972 0.435782
vt 0.327818 0.408904
vt 0.463286 0.626323
vt 0.484999 0.644142
vt 0.314286 0.444764
vt 0.301045 0.419993
vt 0.618991 0.413064
vt 0.590525 0.413064
vt 0.590525 0.384086
vt 0.618991 0.384085
vt 0.673265 0.763988
vt 0.644800 0.763988
vt 0.644800 0.740516
vt 0.673265 0.740516
vt 0.618991 0.268171
vt 0.590525 0.268171
vt 0.590525 0.239192
vt 0.618991 0.239192
vt 0.618991 0.442043
vt 0.590525 0.442043
vt 0.644800 0.717043
vt 0.673265 0.717043
vt 0.618991 0.297150
vt 0.590525 0.297150
vt 0.618991 0.471021
vt 0.590525 0.471021
vt 0.644800 0.693571
vt 0.673265 0.693571
vt 0.673265 0.576208
vt 0.644800 0.576208
vt 0.644800 0.552736
vt 0.673265 0.552736
vt 0.644800 0.670098
vt 0.673265 0.670098
vt 0.644800 0.529264
vt 0.673265 0.529263
vt 0.618991 0.528979
vt 0.590525 0.528979
vt 0.590525 0.500000
vt 0.618991 0.500000
vt 0.644800 0.646626
vt 0.673265 0.646626
vt 0.644800 0.505791
vt 0.673265 0.505791
vt 0.618991 0.557957
vt 0.590525 0.557957
vt 0.644800 0.623153
vt 0.673265 0.623153
vt 0.644800 0.482318
vt 0.673265 0.482318
vt 0.618991 0.586936
vt 0.590525 0.586936
vt 0.644800 0.599681
vt 0.673265 0.599681
vt 0.644799 0.458846
vt 0.673265 0.458846
vt 0.618991 0.615914
vt 0.590525 0.615915
vt 0.644799 0.435374
vt 0.673265 0.435374
vt 0.618991 0.644893
vt 0.590525 0.644893
vt 0.644799 0.411901
vt 0.673265 0.411901
vt 0.618991 0.673872
vt 0.590526 0.673872
vt 0.644799 0.388429
vt 0.673265 0.388429
vt 0.618991 0.702850
vt 0.590526 0.702851
vt 0.644799 0.364956
vt 0.673265 0.364956
vt 0.618991 0.731829
vt 0.590526 0.731829
vt 0.644799 0.341484
vt 0.673265 0.341484
vt 0.618991 0.760808
vt 0.590526 0.760808
vt 0.644799 0.318011
vt 0.673265 0.318011
vt 0.618991 0.789786
vt 0.590526 0.789786
vt 0.644800 0.294539
vt 0.673265 0.294539
vt 0.618991 0.818765
vt 0.590526 0.818765
vt 0.644800 0.271066
vt 0.673265 0.271066
vt 0.618991 0.847744
vt 0.590526 0.847744
vt 0.644800 0.247594
vt 0.673265 0.247594
vt 0.618991 0.876722
vt 0.590526 0.876722
vt 0.644800 0.224121
vt 0.673265 0.224121
vt 0.618991 0.905701
vt 0.590525 0.905701
vt 0.644800 0.200649
vt 0.673265 0.200649
vt 0.618991 0.934680
vt 0.590525 0.934680
vt 0.644800 0.177176
vt 0.673265 0.177176
vt 0.618991 0.963659
vt 0.590525 0.963658
vt 0.644800 0.153704
vt 0.673265 0.153704
vt 0.618991 0.065320
vt 0.590526 0.065320
vt 0.590526 0.036342
vt 0.618991 0.036342
vt 0.644800 0.130231
vt 0.673265 0.130231
vt 0.618991 0.094299
vt 0.590526 0.094299
vt 0.644800 0.106759
vt 0.673265 0.106759
vt 0.618991 0.123278
vt 0.590526 0.123278
vt 0.644800 0.083286
vt 0.673265 0.083287
vt 0.618991 0.152256
vt 0.590525 0.152256
vt 0.618991 0.326128
vt 0.590525 0.326128
vt 0.644800 0.059814
vt 0.673265 0.059814
vt 0.618991 0.181235
vt 0.590525 0.181235
vt 0.618991 0.355107
vt 0.590525 0.355107
vt 0.644800 0.036342
vt 0.673265 0.036342
vt 0.618991 0.210214
vt 0.590525 0.210213
vt 0.673265 0.787461
vt 0.644800 0.787461
vt 0.512189 0.140543
vt 0.485310 0.148696
vt 0.476328 0.127011
vt 0.501099 0.113770
vt 0.484999 0.089675
vt 0.463287 0.107494
vt 0.464508 0.069184
vt 0.446690 0.090897
vt 0.440413 0.053085
vt 0.427173 0.077856
vt 0.413640 0.041995
vt 0.405487 0.068873
vt 0.385219 0.036342
vt 0.382466 0.064294
vt 0.356240 0.036342
vt 0.358993 0.064294
vt 0.327818 0.041995
vt 0.335972 0.068873
vt 0.301045 0.053085
vt 0.314286 0.077856
vt 0.276950 0.069184
vt 0.294769 0.090897
vt 0.256459 0.089675
vt 0.278171 0.107494
vt 0.240360 0.113770
vt 0.265131 0.127011
vt 0.229270 0.140543
vt 0.256148 0.148696
vt 0.223616 0.168965
vt 0.251569 0.171718
vt 0.223616 0.197943
vt 0.251569 0.195190
vt 0.229270 0.226365
vt 0.256148 0.218212
vt 0.240359 0.253138
vt 0.265131 0.239898
vt 0.256459 0.277233
vt 0.278171 0.259414
vt 0.276950 0.297724
vt 0.294769 0.276012
vt 0.301045 0.313824
vt 0.314286 0.289053
vt 0.327818 0.324914
vt 0.335971 0.298035
vt 0.356239 0.330567
vt 0.358993 0.302614
vt 0.385218 0.330567
vt 0.382465 0.302615
vt 0.413640 0.324914
vt 0.405487 0.298035
vt 0.440413 0.313824
vt 0.427172 0.289053
vt 0.464508 0.297725
vt 0.446689 0.276012
vt 0.484999 0.277234
vt 0.463287 0.259415
vt 0.501099 0.253139
vt 0.476327 0.239898
vt 0.512188 0.226366
vt 0.485310 0.218213
vt 0.517842 0.197944
vt 0.489889 0.195191
vt 0.517842 0.168966
vt 0.489889 0.171719
vt 0.512189 0.140544
vt 0.485310 0.148697
vt 0.050666 0.857629
vt 0.050666 0.036926
vt 0.064989 0.036842
vt 0.064990 0.857546
vt 0.079313 0.036759
vt 0.079313 0.857462
vt 0.093637 0.036675
vt 0.093637 0.857379
vt 0.107961 0.036592
vt 0.107961 0.857295
vt 0.122285 0.036509
vt 0.122285 0.857212
vt 0.136609 0.036425
vt 0.136609 0.857128
vt 0.792823 0.605139
vt 0.792823 0.594265
vt 0.800513 0.586575
vt 0.811387 0.586575
vt 0.819076 0.594265
vt 0.819076 0.605139
vt 0.811387 0.612828
vt 0.800513 0.612828
vt 0.150933 0.036342
vt 0.150933 0.857045
vt 0.036342 0.857713
vt 0.036342 0.037009
vt 0.811387 0.685511
vt 0.819076 0.693201
vt 0.819076 0.704075
vt 0.811387 0.711764
vt 0.800513 0.711764
vt 0.792823 0.704075
vt 0.792823 0.693201
vt 0.800513 0.685511
vt 0.792823 0.421387
vt 0.802896 0.421387
vt 0.802896 0.462603
vt 0.792823 0.462603
vt 0.802896 0.472676
vt 0.848709 0.462603
vt 0.848709 0.472676
vt 0.858782 0.462603
vt 0.848709 0.421387
vt 0.858782 0.421387
vt 0.848709 0.411315
vt 0.802896 0.411315
vt 0.848709 0.513892
vt 0.802896 0.513892
vt 0.325252 0.770159
vt 0.325252 0.780231
vt 0.233689 0.780231
vt 0.233689 0.770159
vt 0.223616 0.780231
vt 0.233689 0.826045
vt 0.223616 0.826045
vt 0.233689 0.836117
vt 0.325252 0.826045
vt 0.325252 0.836117
vt 0.335325 0.826045
vt 0.335325 0.780231
vt 0.426888 0.780231
vt 0.426888 0.826045
vt 0.792823 0.187487
vt 0.802896 0.187487
vt 0.802896 0.328559
vt 0.792823 0.328559
vt 0.802896 0.338632
vt 0.848710 0.328559
vt 0.848710 0.338631
vt 0.858782 0.328559
vt 0.848709 0.187486
vt 0.858782 0.187486
vt 0.848709 0.177414
vt 0.802896 0.177414
vt 0.802896 0.036342
vt 0.848709 0.036342
vn -1.0000 0.0000 0.0000
vn 0.0000 0.0000 -1.0000
vn 1.0000 0.0000 0.0000
vn 0.0000 0.0000 1.0000
vn 0.0000 -1.0000 0.0000
vn 0.0000 1.0000 0.0000
vn 0.8750 0.0000 0.4841
vn 0.7637 0.0000 0.6455
vn 0.9610 0.0000 -0.2764
vn 0.8887 0.0000 -0.4586
vn 0.0836 0.0000 0.9965
vn -0.1124 0.0000 0.9937
vn 0.9526 0.0000 0.3041
vn 0.7821 0.0000 -0.6231
vn 0.2764 0.0000 0.9610
vn 0.9937 0.0000 0.1124
vn 0.6455 0.0000 -0.7637
vn -0.2764 0.0000 -0.9610
vn -0.4586 0.0000 -0.8887
vn 0.4841 0.0000 -0.8750
vn -0.6231 0.0000 -0.7821
vn 0.9965 0.0000 -0.0836
vn 0.3041 0.0000 -0.9526
vn -0.7637 0.0000 -0.6455
vn 0.1124 0.0000 -0.9937
vn -0.8750 0.0000 -0.4841
vn -0.0836 0.0000 -0.9965
vn -0.9526 0.0000 -0.3041
vn -0.9937 0.0000 -0.1124
vn -0.9965 0.0000 0.0836
vn -0.9610 0.0000 0.2764
vn -0.8887 0.0000 0.4586
vn -0.7821 0.0000 0.6231
vn -0.6455 0.0000 0.7637
vn -0.4841 0.0000 0.8750
vn -0.3041 0.0000 0.9526
vn 0.4586 0.0000 0.8887
vn 0.6231 0.0000 0.7821
vn 0.0000 0.9239 -0.3827
vn -0.0000 0.3827 -0.9239
vn -0.0000 -0.3827 -0.9239
vn -0.0000 -0.9239 -0.3827
vn -0.0000 -0.9239 0.3827
vn 0.0000 -0.3827 0.9239
vn 0.0000 0.3827 0.9239
vn 0.0000 0.9239 0.3827
g Key_Key_Key
usemtl Key
s 1
f 1/1/1 2/2/1 4/3/1 3/4/1
f 3/5/2 4/3/2 8/6/2 7/7/2
f 7/8/3 8/6/3 6/9/3 5/10/3
f 5/11/4 6/9/4 2/2/4 1/12/4
f 3/13/5 7/14/5 5/11/5 1/12/5
f 8/6/6 4/3/6 2/2/6 6/9/6
f 21/15/5 53/16/5 54/17/5 22/18/5
f 35/19/5 67/20/5 68/21/5 36/22/5
f 22/18/5 54/17/5 55/23/5 23/24/5
f 9/25/5 41/26/5 42/27/5 10/28/5
f 36/22/5 68/21/5 69/29/5 37/30/5
f 23/24/5 55/23/5 56/31/5 24/32/5
f 10/28/5 42/27/5 43/33/5 11/34/5
f 37/30/5 69/29/5 70/35/5 38/36/5
f 24/32/5 56/31/5 57/37/5 25/38/5
f 11/34/5 43/33/5 44/39/5 12/40/5
f 38/36/5 70/35/5 71/41/5 39/42/5
f 25/38/5 57/37/5 58/43/5 26/44/5
f 12/40/5 44/39/5 45/45/5 13/46/5
f 39/42/5 71/41/5 72/47/5 40/48/5
f 26/44/5 58/43/5 59/49/5 27/50/5
f 13/46/5 45/45/5 46/51/5 14/52/5
f 40/48/5 72/47/5 41/26/5 9/25/5
f 27/50/5 59/49/5 60/53/5 28/54/5
f 14/52/5 46/51/5 47/55/5 15/56/5
f 28/54/5 60/53/5 61/57/5 29/58/5
f 15/56/5 47/55/5 48/59/5 16/60/5
f 29/58/5 61/57/5 62/61/5 30/62/5
f 16/60/5 48/59/5 49/63/5 17/64/5
f 30/62/5 62/61/5 63/65/5 31/66/5
f 17/64/5 49/63/5 50/67/5 18/68/5
f 31/66/5 63/65/5 64/69/5 32/70/5
f 18/68/5 50/67/5 51/71/5 19/72/5
f 32/70/5 64/69/5 65/73/5 33/74/5
f 19/72/5 51/71/5 52/75/5 20/76/5
f 33/74/5 65/73/5 66/77/5 34/78/5
f 20/76/5 52/75/5 53/16/5 21/15/5
f 34/78/5 66/77/5 67/20/5 35/19/5
f 13/79/7 77/80/7 76/81/8 12/82/8
f 65/83/9 129/84/9 130/85/10 66/86/10
f 40/87/11 104/88/11 103/89/12 39/90/12
f 14/91/13 78/92/13 77/80/7 13/79/7
f 66/86/10 130/85/10 131/93/14 67/94/14
f 9/95/15 73/96/15 104/88/11 40/87/11
f 15/97/16 79/98/16 78/92/13 14/91/13
f 67/94/14 131/93/14 132/99/17 68/100/17
f 41/101/18 105/102/18 106/103/19 42/104/19
f 68/100/17 132/99/17 133/105/20 69/106/20
f 42/104/19 106/103/19 107/107/21 43/108/21
f 17/109/9 81/110/9 80/111/22 16/112/22
f 69/106/20 133/105/20 134/113/23 70/114/23
f 43/108/21 107/107/21 108/115/24 44/116/24
f 18/117/10 82/118/10 81/110/9 17/109/9
f 70/114/23 134/113/23 135/119/25 71/120/25
f 44/116/24 108/115/24 109/121/26 45/122/26
f 19/123/14 83/124/14 82/118/10 18/117/10
f 71/120/25 135/119/25 136/125/27 72/126/27
f 45/122/26 109/121/26 110/127/28 46/128/28
f 20/129/17 84/130/17 83/124/14 19/123/14
f 72/126/27 136/125/27 105/102/18 41/101/18
f 46/128/28 110/127/28 111/131/29 47/132/29
f 21/133/20 85/134/20 84/130/17 20/129/17
f 47/132/29 111/131/29 112/135/30 48/136/30
f 22/137/23 86/138/23 85/134/20 21/133/20
f 48/136/30 112/135/30 113/139/31 49/140/31
f 23/141/25 87/142/25 86/138/23 22/137/23
f 49/140/31 113/139/31 114/143/32 50/144/32
f 24/145/27 88/146/27 87/142/25 23/141/25
f 50/144/32 114/143/32 115/147/33 51/148/33
f 25/149/18 89/150/18 88/146/27 24/145/27
f 51/148/33 115/147/33 116/151/34 52/152/34
f 26/153/19 90/154/19 89/150/18 25/149/18
f 52/152/34 116/151/34 117/155/35 53/156/35
f 27/157/21 91/158/21 90/154/19 26/153/19
f 53/156/35 117/155/35 118/159/36 54/160/36
f 28/161/24 92/162/24 91/158/21 27/157/21
f 54/160/36 118/159/36 119/163/12 55/164/12
f 29/165/26 93/166/26 92/162/24 28/161/24
f 55/164/12 119/163/12 120/167/11 56/168/11
f 30/169/28 94/170/28 93/166/26 29/165/26
f 56/168/11 120/167/11 121/171/15 57/172/15
f 31/173/29 95/174/29 94/170/28 30/169/28
f 57/172/15 121/171/15 122/175/37 58/176/37
f 32/177/30 96/178/30 95/174/29 31/173/29
f 58/176/37 122/175/37 123/179/38 59/180/38
f 33/181/31 97/182/31 96/183/30 32/184/30
f 59/180/38 123/179/38 124/185/8 60/186/8
f 34/187/32 98/188/32 97/182/31 33/181/31
f 60/186/8 124/185/8 125/189/7 61/190/7
f 35/191/33 99/192/33 98/188/32 34/187/32
f 61/190/7 125/189/7 126/193/13 62/194/13
f 36/195/34 100/196/34 99/192/33 35/191/33
f 10/197/37 74/198/37 73/96/15 9/95/15
f 62/194/13 126/193/13 127/199/16 63/200/16
f 37/201/35 101/202/35 100/196/34 36/195/34
f 11/203/38 75/204/38 74/198/37 10/197/37
f 63/200/16 127/199/16 128/205/22 64/206/22
f 38/207/36 102/208/36 101/202/35 37/201/35
f 12/82/8 76/81/8 75/204/38 11/203/38
f 64/209/22 128/210/22 129/84/9 65/83/9
f 39/90/12 103/89/12 102/208/36 38/207/36
f 137/211/6 138/212/6 110/213/6 78/214/6
f 77/215/6 78/214/6 110/213/6 109/216/6
f 76/217/6 77/215/6 109/216/6 108/218/6
f 75/219/6 76/217/6 108/218/6 107/220/6
f 74/221/6 75/219/6 107/220/6 106/222/6
f 73/223/6 74/221/6 106/222/6 105/224/6
f 104/225/6 73/223/6 105/224/6 136/226/6
f 103/227/6 104/225/6 136/226/6 135/228/6
f 102/229/6 103/227/6 135/228/6 134/230/6
f 101/231/6 102/229/6 134/230/6 133/232/6
f 100/233/6 101/231/6 133/232/6 132/234/6
f 99/235/6 100/233/6 132/234/6 131/236/6
f 98/237/6 99/235/6 131/236/6 130/238/6
f 97/239/6 98/237/6 130/238/6 129/240/6
f 96/241/6 97/239/6 129/240/6 128/242/6
f 95/243/6 96/241/6 128/242/6 127/244/6
f 94/245/6 95/243/6 127/244/6 126/246/6
f 93/247/6 94/245/6 126/246/6 125/248/6
f 92/249/6 93/247/6 125/248/6 124/250/6
f 91/251/6 92/249/6 124/250/6 123/252/6
f 90/253/6 91/251/6 123/252/6 122/254/6
f 89/255/6 90/253/6 122/254/6 121/256/6
f 88/257/6 89/255/6 121/256/6 120/258/6
f 87/259/6 88/257/6 120/258/6 119/260/6
f 86/261/6 87/259/6 119/260/6 118/262/6
f 85/263/6 86/261/6 118/262/6 117/264/6
f 84/265/6 85/263/6 117/264/6 116/266/6
f 83/267/6 84/265/6 116/266/6 115/268/6
f 82/269/6 83/267/6 115/268/6 114/270/6
f 81/271/6 82/269/6 114/270/6 113/272/6
f 80/273/6 81/271/6 113/272/6 112/274/6
f 79/275/6 80/273/6 112/274/6 111/276/6
f 15/97/16 16/112/22 80/111/22 79/98/16
f 140/277/39 141/278/39 143/279/40 142/280/40
f 142/280/40 143/279/40 145/281/41 144/282/41
f 144/282/41 145/281/41 147/283/42 146/284/42
f 146/284/42 147/283/42 149/285/43 148/286/43
f 148/286/43 149/285/43 151/287/44 150/288/44
f 150/288/44 151/287/44 153/289/45 152/290/45
f 143/291/3 141/292/3 155/293/3 153/294/3 151/295/3 149/296/3 147/297/3 145/298/3
f 152/290/45 153/289/45 155/299/46 154/300/46
f 154/301/46 155/302/46 141/278/39 140/277/39
f 140/303/1 142/304/1 144/305/1 146/306/1 148/307/1 150/308/1 152/309/1 154/310/1
f 156/311/1 157/312/1 159/313/1 158/314/1
f 158/315/2 159/313/2 163/316/2 162/317/2
f 162/318/3 163/316/3 161/319/3 160/320/3
f 160/321/4 161/319/4 157/312/4 156/322/4
f 158/315/5 162/317/5 160/323/5 156/324/5
f 163/316/6 159/313/6 157/312/6 161/319/6
f 164/325/1 165/326/1 167/327/1 166/328/1
f 166/329/2 167/327/2 171/330/2 170/331/2
f 170/332/3 171/330/3 169/333/3 168/334/3
f 168/335/4 169/333/4 165/326/4 164/336/4
f 166/337/5 170/338/5 168/335/5 164/336/5
f 171/330/6 167/327/6 165/326/6 169/333/6
f 172/339/1 173/340/1 175/341/1 174/342/1
f 174/343/2 175/341/2 179/344/2 178/345/2
f 178/346/3 179/344/3 177/347/3 176/348/3
f 176/349/4 177/347/4 173/340/4 172/350/4
f 174/351/5 178/352/5 176/349/5 172/350/5
f 179/344/6 175/341/6 173/340/6 177/347/6
l 79 137
l 16 139
